<?xml version="1.0" standalone="no"?>
<!DOCTYPE svg PUBLIC "-//W3C//DTD SVG 20010904//EN"
 "http://www.w3.org/TR/2001/REC-SVG-20010904/DTD/svg10.dtd">
<svg version="1.0" xmlns="http://www.w3.org/2000/svg"
 width="100.000000pt" height="100.000000pt" viewBox="0 0 100.000000 100.000000"
 preserveAspectRatio="xMidYMid meet">

<g transform="translate(0.000000,100.000000) scale(0.100000,-0.100000)"
fill="#000000" stroke="none">
<path d="M428 989 c-97 -14 -208 -70 -270 -136 l-27 -28 38 0 c48 0 87 -21 95
-49 3 -11 6 -40 6 -64 0 -43 0 -43 -32 -40 -32 3 -33 4 -38 58 -4 42 -9 56
-23 58 -34 7 -47 -17 -47 -87 l0 -67 68 -84 67 -84 3 -81 c3 -69 1 -84 -16
-105 -18 -22 -28 -25 -81 -25 -84 0 -104 20 -105 107 l-1 63 32 3 32 3 3 -68
3 -68 33 -3 32 -3 0 80 0 80 -64 77 c-58 69 -66 83 -73 138 l-9 61 -23 -70
c-55 -169 -16 -353 102 -482 152 -166 372 -211 574 -118 202 93 315 312 278
535 -9 56 -66 185 -75 171 -3 -6 -33 -121 -66 -256 l-59 -245 -32 0 c-18 0
-33 2 -33 5 0 2 27 113 60 246 33 133 60 248 60 255 0 11 -16 14 -65 14 -58 0
-65 2 -65 20 0 18 7 20 82 20 l82 0 -30 31 c-97 104 -266 160 -416 138z m40
-296 c2 -9 -11 -13 -47 -13 l-51 0 0 -85 0 -85 45 0 c33 0 45 -4 45 -15 0 -11
-12 -15 -45 -15 l-45 0 0 -95 0 -95 45 0 c33 0 45 -4 45 -15 0 -12 -15 -15
-75 -15 l-75 0 0 225 0 226 77 -3 c50 -2 78 -7 81 -15z m156 0 c5 -16 66 -412
66 -427 0 -3 -13 -6 -29 -6 -26 0 -30 4 -36 40 -7 38 -8 40 -45 40 -40 0 -50
-11 -50 -56 0 -19 -5 -24 -24 -24 -18 0 -23 5 -20 18 2 9 15 105 29 212 15
107 28 201 30 208 7 19 73 15 79 -5z m-292 -470 c-10 -4 -8 -8 5 -18 17 -13
17 -14 0 -21 -10 -3 -23 -2 -28 3 -14 14 0 43 20 42 11 0 12 -2 3 -6z m98 -17
c0 -19 -5 -24 -20 -23 -14 1 -20 8 -20 24 0 16 6 23 20 23 15 0 20 -7 20 -24z
m88 1 c4 -20 -25 -34 -40 -19 -15 15 -1 44 19 40 10 -2 19 -11 21 -21z m63 1
c1 -22 1 -22 9 2 l8 25 1 -28 c1 -22 -3 -28 -16 -25 -19 3 -32 48 -14 48 6 0
11 -10 12 -22z m104 12 c6 -9 -17 -40 -29 -40 -3 0 -6 11 -6 25 0 25 23 35 35
15z"/>
<path d="M561 520 c-7 -58 -15 -115 -18 -127 -5 -21 -1 -23 31 -23 42 0 41
-10 18 140 l-18 115 -13 -105z"/>
<path d="M486 211 c-4 -5 -2 -12 3 -15 5 -4 12 -2 15 3 4 5 2 12 -3 15 -5 4
-12 2 -15 -3z"/>
</g>
</svg>
